# xmcd
#
# Track frame offsets: 
#        182
#        16475
#        36472
#        53825
#        69887
#        83990
#        101147
#        116562
#        137575
#        153392
#        167712
#        181447
#        202287
#        218450
#
# Disc length: 3109 seconds
#
# Revision: 0
# Processed by: cddbd v1.5.2PL0 Copyright (c) Steve Scherf et al.
# Submitted via: ExactAudioCopy v1.3
#
DISCID=c50c230e
DTITLE=Steff and Friends - Time for Changes
DYEAR=1995
DGENRE=Funk
TTITLE0=Happy And Sad
TTITLE1=Stormy Weather
TTITLE2=Pure And Simply You
TTITLE3=Pretty Little Lioness
TTITLE4=Cadillac Road
TTITLE5=Steff Turns Funky
TTITLE6=Together
TTITLE7=Do You Remember
TTITLE8=Need It Both
TTITLE9=Spend My Time
TTITLE10=Control Over Myself
TTITLE11=Eastside Crossroad
TTITLE12=How Long
TTITLE13=Angel Eyes
EXTD=
EXTT0=
EXTT1=
EXTT2=
EXTT3=
EXTT4=
EXTT5=
EXTT6=
EXTT7=
EXTT8=
EXTT9=
EXTT10=
EXTT11=
EXTT12=
EXTT13=
PLAYORDER=
